<svg width="24" height="24" viewBox="0 0 24 24" fill="none" xmlns="http://www.w3.org/2000/svg">
    <path fill-rule="evenodd" clip-rule="evenodd"
          d="M1.95054 0.314453H21.7717C22.7214 0.314453 23.4912 1.06504 23.4912 1.99116V22.0443C23.4912 22.969 22.7218 23.7206 21.7717 23.7206H1.95054C1.00183 23.7206 0.232422 22.9695 0.232422 22.0443V1.99116C0.232422 1.06551 1.00183 0.314453 1.95054 0.314453ZM3.76953 19.9088H7.28247V9.33984H3.76953V19.9088ZM5.52674 7.89591H5.50321C4.32485 7.89591 3.5625 7.08414 3.5625 6.07002C3.5625 5.03332 4.34838 4.24414 5.54979 4.24414C6.75168 4.24414 7.49097 5.03332 7.5145 6.07002C7.5145 7.08414 6.75121 7.89591 5.52674 7.89591ZM16.4369 19.9087H19.9499H19.9503V13.8475C19.9503 10.6009 18.2171 9.08984 15.9061 9.08984C14.0412 9.08984 13.2063 10.1153 12.7395 10.8353V9.33926H9.22656C9.27268 10.3298 9.22656 19.9082 9.22656 19.9082H12.7395V14.0056C12.7395 13.6894 12.7621 13.3741 12.8548 13.1487C13.1094 12.5171 13.6873 11.8635 14.6576 11.8635C15.9287 11.8635 16.4369 12.8329 16.4369 14.2531V19.9087Z"
          fill="#35B91A"/>
</svg>
